<?xml version="1.0" encoding="UTF-8" standalone="no"?>
<svg
   xmlns:dc="http://purl.org/dc/elements/1.1/"
   xmlns:cc="http://creativecommons.org/ns#"
   xmlns:rdf="http://www.w3.org/1999/02/22-rdf-syntax-ns#"
   xmlns:svg="http://www.w3.org/2000/svg"
   xmlns="http://www.w3.org/2000/svg"
   xmlns:sodipodi="http://sodipodi.sourceforge.net/DTD/sodipodi-0.dtd"
   xmlns:inkscape="http://www.inkscape.org/namespaces/inkscape"
   version="1.1"
   x="0px"
   y="0px"
   viewBox="0 0 67.996061 95.988188"
   id="svg2"
   inkscape:version="0.48.4 r9939"
   width="100%"
   height="100%"
   sodipodi:docname="logo.svg"
   inkscape:export-filename="/home/jacques/Workspace/conferts-haut-barr/assets/images/logo.png"
   inkscape:export-xdpi="90"
   inkscape:export-ydpi="90">
  <metadata
     id="metadata18">
    <rdf:RDF>
      <cc:Work
         rdf:about="">
        <dc:format>image/svg+xml</dc:format>
        <dc:type
           rdf:resource="http://purl.org/dc/dcmitype/StillImage" />
        <dc:title></dc:title>
      </cc:Work>
    </rdf:RDF>
  </metadata>
  <defs
     id="defs16" />
  <sodipodi:namedview
     pagecolor="#ffffff"
     bordercolor="#666666"
     borderopacity="1"
     objecttolerance="10"
     gridtolerance="10"
     guidetolerance="10"
     inkscape:pageopacity="0"
     inkscape:pageshadow="2"
     inkscape:window-width="1855"
     inkscape:window-height="1056"
     id="namedview14"
     showgrid="false"
     fit-margin-top="0"
     fit-margin-left="0"
     fit-margin-right="0"
     fit-margin-bottom="0"
     inkscape:zoom="1.888"
     inkscape:cx="33.998031"
     inkscape:cy="35.494091"
     inkscape:window-x="65"
     inkscape:window-y="24"
     inkscape:window-maximized="1"
     inkscape:current-layer="svg2" />
  <g
     transform="translate(-16.001969,-954.36808)"
     id="g4">
    <g
       transform="translate(16.001969,954.33265)"
       id="g6">
      <path
         d="m 34.086613,0.03543307 c -9.035433,0 -17.255905,0.77952755 -23.385826,2.12598423 C 7.61811,2.8346456 4.9960629,3.6141732 3.047244,4.6417322 1.0629921,5.6692913 0,7.0157479 0,8.6456692 0.07086614,11.905512 0.10629921,15.094488 0.10629921,17.893701 0.14173228,36.531496 6.2716534,45.885826 17.716535,59.244094 c -0.814961,1.771653 -6.661417,14.846456 -6.661417,25.830708 0,2.763779 0.637795,5.492126 2.303149,7.547244 1.665355,2.090551 4.358268,3.366142 7.688976,3.401575 l 26.007874,0 c 3.437008,0 6.165354,-1.311024 7.795275,-3.437008 1.629921,-2.161418 2.161417,-4.818898 2.161417,-7.582677 0,-11.055118 -6.023621,-24.129921 -6.661417,-25.830709 11.444882,-13.358267 17.645669,-22.712598 17.645669,-41.492125 0,-3.011811 0,-6.023622 0,-9.0354328 0,-1.6299213 -0.92126,-2.9763779 -2.870079,-4.003937 C 63.177164,3.6141732 60.555116,2.8346456 57.472439,2.1614173 49.145668,0.74409448 42.909448,0.03543307 34.086613,0.03543307 z m 0,3.22440943 c 8.610236,0 16.405512,0.8149606 21.862204,2.019685 2.551181,0.7795275 7.511811,1.8070866 7.653543,3.4015747 -0.07087,1.5590548 -5.279527,2.9055118 -7.653543,3.4370078 -5.456692,1.169291 -13.251968,1.948819 -21.862204,1.948819 -8.610236,0 -16.440944,-0.779528 -21.862204,-1.948819 C 9.637795,11.303149 4.6417322,10.204724 4.570866,8.6811022 4.6062991,7.051181 9.8503934,5.8110235 12.224409,5.2795275 17.645669,4.0748031 25.476377,3.2598425 34.086613,3.2598425 z M 4.1102361,13.145669 c 1.8070866,0.814961 4.0039369,1.488189 6.5905509,2.055118 6.129921,1.346457 14.350393,2.125984 23.385826,2.125984 9.070866,0 17.220472,-0.779527 23.385826,-2.125984 2.586614,-0.566929 4.818898,-1.240157 6.625984,-2.055118 l 0,2.19685 C 61.795274,16.476378 57.543305,17.858267 52.334644,18.850393 46.594487,19.984252 39.93307,20.728346 34.086613,20.728346 23.137795,20.728346 9.3897635,18 4.1102361,16.192913 z M 64.06299,19.877952 c -0.425197,16.582677 -5.988188,24.236221 -17.149605,37.169291 -0.814961,0.212599 -1.700788,0.389764 -2.586615,0.566929 5.88189,-12.47244 11.30315,-24.129921 11.728347,-35.43307 3.082677,-0.673228 5.811023,-1.452756 8.007873,-2.30315 z m -59.9173208,0.56693 c 2.1968503,0.673228 4.9251967,1.346456 8.0078738,1.948818 0.496063,11.232284 5.704724,22.818898 11.551181,35.220472 -0.92126,-0.177165 -1.771654,-0.35433 -2.622047,-0.566929 C 10.062992,44.291338 4.6771652,36.673228 4.1456692,20.444882 z m 47.8700778,2.551181 c -0.744095,10.488188 -6.271654,22.181102 -12.401575,35.114172 -0.389764,0.03543 -0.81496,0.07087 -1.240157,0.07087 2.551181,-12.578739 3.57874,-22.925196 3.685039,-33.838582 3.472441,-0.35433 6.980315,-0.81496 9.956693,-1.346456 z m -35.787401,0.141732 c 3.188976,0.496063 6.519685,0.956693 9.92126,1.240157 0.106299,10.877953 0.956692,21.22441 3.47244,33.803149 -0.425196,0 -0.81496,-0.03543 -1.204724,-0.07087 C 22.003936,45.81496 17.220472,34.405511 16.228346,23.137795 z m 13.925196,1.488189 c 1.346457,0.07087 2.657481,0.106299 3.933071,0.106299 1.311024,0 2.622047,-0.03543 3.968504,-0.106299 -0.106299,10.842519 -1.169291,21.011811 -3.791338,33.732283 -0.177166,0 -0.354331,0 -0.496063,0 C 31.145668,45.673228 30.259842,35.468503 30.153542,24.625984 z m -8.964566,36.566928 c 7.759842,1.629922 17.929133,1.629922 25.688975,0 3.118111,7.72441 6.023622,15.980315 6.129922,23.811024 0,2.19685 -0.496063,4.003937 -1.346457,5.137795 -0.850394,1.133858 -2.055118,1.877953 -4.570866,1.877953 l -26.007873,0 c -2.090552,0 -3.649607,-0.708662 -4.6063,-1.913386 -0.885826,-1.098425 -1.417322,-2.870079 -1.417322,-5.031496 -0.07087,-8.114173 2.940944,-16.15748 6.129921,-23.88189 z"
         style="fill:#000000;fill-opacity:1;fill-rule:nonzero;stroke:none"
         id="path8"
         inkscape:connector-curvature="0" />
    </g>
  </g>
</svg>
